<svg width="10" height="22" viewBox="0 0 10 22" fill="none" xmlns="http://www.w3.org/2000/svg">
<path d="M9.21484 16.8711C9.30599 16.9987 9.34245 17.1628 9.32422 17.3633C9.32422 17.5456 9.30599 17.737 9.26953 17.9375C9.2513 18.138 9.26042 18.3659 9.29688 18.6211C9.33333 18.8581 9.36068 19.0951 9.37891 19.332C9.41536 19.5508 9.43359 19.7604 9.43359 19.9609C9.43359 20.1615 9.36979 20.3346 9.24219 20.4805C9.13281 20.6081 8.95964 20.7174 8.72266 20.8086C8.48568 20.8997 8.22135 20.9635 7.92969 21C7.25521 21.0547 6.67188 20.9544 6.17969 20.6992C5.72396 20.4622 5.28646 20.3893 4.86719 20.4805C4.46615 20.5716 4.14714 20.6628 3.91016 20.7539C3.69141 20.8268 3.42708 20.8997 3.11719 20.9727C2.82552 21.0456 2.53385 21.0729 2.24219 21.0547C1.95052 21.0547 1.70443 20.8997 1.50391 20.5898C1.30339 20.2617 1.19401 19.888 1.17578 19.4688C1.15755 19.0495 1.22135 18.6211 1.36719 18.1836C1.51302 17.7461 1.56771 17.2539 1.53125 16.707C1.49479 16.1419 1.45833 15.668 1.42188 15.2852C1.38542 14.8841 1.38542 14.5378 1.42188 14.2461C1.51302 13.5534 1.43099 13.0703 1.17578 12.7969C0.97526 12.5599 0.875 12.2865 0.875 11.9766C0.875 11.6484 0.884115 11.3841 0.902344 11.1836C0.920573 10.9831 0.984375 10.8099 1.09375 10.6641C1.20312 10.5182 1.26693 10.3997 1.28516 10.3086C1.32161 10.1992 1.32161 10.0169 1.28516 9.76172C1.13932 8.72266 1.08464 7.92057 1.12109 7.35547C1.17578 6.79036 1.16667 6.30729 1.09375 5.90625C1.03906 5.48698 1.02995 5.14974 1.06641 4.89453C1.10286 4.62109 1.08464 4.39323 1.01172 4.21094C0.938802 4.02865 0.911458 3.90104 0.929688 3.82812C0.966146 3.73698 0.966146 3.61849 0.929688 3.47266C0.893229 3.30859 0.856771 3.13542 0.820312 2.95312C0.710938 2.40625 0.674479 2.03255 0.710938 1.83203C0.765625 1.63151 0.856771 1.40365 0.984375 1.14844C1.13021 0.875 1.30339 0.710938 1.50391 0.65625C1.70443 0.601562 1.82292 0.55599 1.85938 0.519531C1.89583 0.483073 1.98698 0.4375 2.13281 0.382812C2.51562 0.273438 2.79818 0.264323 2.98047 0.355469C3.16276 0.446615 3.32682 0.501302 3.47266 0.519531C3.61849 0.519531 3.76432 0.519531 3.91016 0.519531C4.07422 0.501302 4.22917 0.473958 4.375 0.4375L4.70312 0.382812C5.08594 0.273438 5.3776 0.291667 5.57812 0.4375C5.70573 0.565104 5.79688 0.665365 5.85156 0.738281C5.90625 0.811198 5.91536 0.920573 5.87891 1.06641C5.84245 1.21224 5.86068 1.33073 5.93359 1.42188C6.00651 1.51302 6.03385 1.64974 6.01562 1.83203C5.9974 1.99609 5.98828 2.1237 5.98828 2.21484C6.00651 2.28776 6.02474 2.36979 6.04297 2.46094C6.07943 2.64323 6.0612 2.86198 5.98828 3.11719C5.91536 3.3724 5.86979 3.54557 5.85156 3.63672C5.83333 3.70964 5.82422 3.78255 5.82422 3.85547C5.82422 4.09245 5.78776 4.32031 5.71484 4.53906C5.66016 4.73958 5.6237 4.91276 5.60547 5.05859C5.60547 5.1862 5.60547 5.34115 5.60547 5.52344V6.125C5.60547 6.34375 5.58724 6.61719 5.55078 6.94531C5.53255 7.27344 5.50521 7.66536 5.46875 8.12109C5.45052 8.55859 5.43229 9.00521 5.41406 9.46094C5.34115 10.6641 5.25 11.4297 5.14062 11.7578C4.84896 11.9219 4.80339 12.3047 5.00391 12.9062L5.19531 13.4805C5.3776 14.0273 5.46875 14.5651 5.46875 15.0938C5.46875 15.6224 5.42318 16.1328 5.33203 16.625C5.86068 16.9167 6.23438 17.0716 6.45312 17.0898C6.98177 17.1628 7.45573 17.0898 7.875 16.8711C8.3125 16.6523 8.6224 16.5612 8.80469 16.5977C9.00521 16.6341 9.14193 16.7253 9.21484 16.8711Z" fill="#00B374"/>
</svg>
