<svg width="14" height="14" viewBox="0 0 14 14" fill="none" xmlns="http://www.w3.org/2000/svg">
<path fill-rule="evenodd" clip-rule="evenodd" d="M3.23998 1.39809C3.24586 1.39942 3.25607 1.40194 3.27094 1.40649C3.30754 1.41769 3.35191 1.43488 3.39927 1.45601C3.4132 1.46225 3.42674 1.46851 3.43964 1.47465C3.72092 1.9045 4.11194 2.75697 4.27615 3.51713C4.47314 4.42893 4.57925 5.54689 4.55304 6.76037C4.52682 7.97385 4.37252 9.08618 4.13634 9.98862C3.93774 10.7476 3.50446 11.5905 3.2045 12.004C3.19632 12.0077 3.18773 12.0114 3.17892 12.0151C3.13992 12.0313 3.1018 12.0445 3.06814 12.0529C3.03603 12.061 3.01801 12.0618 3.01801 12.0618C3.00957 12.0616 2.90547 12.0559 2.72547 11.8271C2.5492 11.6031 2.36417 11.2401 2.20034 10.7341C1.87473 9.72848 0.109646 8.25465 0.144263 6.65233C0.17888 5.05 2.00541 3.67936 2.37416 2.68872C2.55968 2.19031 2.76022 1.83566 2.946 1.61943C3.11068 1.42777 3.21087 1.40156 3.23998 1.39809ZM3.98583 13.099L12.9246 7.78999C13.5608 7.41215 13.5805 6.49823 12.9613 6.09326L4.25741 0.401367C4.24814 0.395332 4.23873 0.389494 4.22915 0.383886L3.89255 0.959316C4.22915 0.383886 4.22915 0.383886 4.22915 0.383886L4.22764 0.383019L4.22553 0.381774L4.21964 0.378379C4.21496 0.375711 4.20883 0.372211 4.20135 0.368049C4.18647 0.359691 4.16604 0.348447 4.14118 0.335307C4.09197 0.309238 4.02277 0.274203 3.94263 0.238429C3.8104 0.179427 3.54636 0.070398 3.27709 0.0645806C2.70936 0.0523152 2.25737 0.374962 1.9347 0.75048C1.60814 1.13055 1.34008 1.64465 1.12458 2.22359C0.691271 3.3877 0.417065 4.95962 0.380109 6.67022C0.343153 8.38082 0.549215 9.9631 0.93185 11.1448C1.12214 11.7325 1.36775 12.2578 1.67759 12.6516C1.98374 13.0407 2.42137 13.3825 2.98911 13.3948C3.27791 13.401 3.54005 13.3091 3.69243 13.2456C3.77637 13.2105 3.84694 13.1755 3.8973 13.1487C3.92276 13.1352 3.94372 13.1235 3.95939 13.1145C3.96725 13.11 3.97384 13.1062 3.97904 13.1031L3.98306 13.1007L3.98583 13.099ZM5.46391 2.78352L11.7841 6.91659L5.29131 10.7729C5.34226 10.623 6.58222 9.35978 6.62074 9.21264C6.8868 8.19602 5.60487 9.37013 5.88606 6.78917C6.16724 4.20821 5.57944 3.23562 5.57944 3.23562C5.54731 3.08699 5.50834 2.93548 5.46391 2.78352Z" fill="#D9B05D"/>
</svg>
